<mxfile host="app.diagrams.net" modified="2023-03-09T14:51:30.933Z" agent="5.0 (Windows NT 10.0; Win64; x64) AppleWebKit/537.36 (KHTML, like Gecko) Chrome/110.0.0.0 Safari/537.36" etag="6a4jCMtbVF7EvuzRUAYs" version="21.0.2" type="github">
  <diagram name="Page-1" id="74e2e168-ea6b-b213-b513-2b3c1d86103e">
    <mxGraphModel dx="650" dy="563" grid="1" gridSize="10" guides="1" tooltips="1" connect="1" arrows="1" fold="1" page="1" pageScale="1" pageWidth="1100" pageHeight="850" background="none" math="0" shadow="0">
      <root>
        <mxCell id="0" />
        <mxCell id="1" parent="0" />
        <mxCell id="HfCSILA5ziux-G7GHAKS-1" value="inicio" style="strokeWidth=2;html=1;shape=mxgraph.flowchart.start_1;whiteSpace=wrap;" vertex="1" parent="1">
          <mxGeometry x="80" y="70" width="100" height="50" as="geometry" />
        </mxCell>
        <mxCell id="HfCSILA5ziux-G7GHAKS-2" value="" style="endArrow=classic;html=1;rounded=0;exitX=0.5;exitY=1;exitDx=0;exitDy=0;exitPerimeter=0;" edge="1" parent="1" source="HfCSILA5ziux-G7GHAKS-1" target="HfCSILA5ziux-G7GHAKS-3">
          <mxGeometry width="50" height="50" relative="1" as="geometry">
            <mxPoint x="310" y="300" as="sourcePoint" />
            <mxPoint x="130" y="160" as="targetPoint" />
          </mxGeometry>
        </mxCell>
        <mxCell id="HfCSILA5ziux-G7GHAKS-3" value="saldo" style="html=1;strokeWidth=2;shape=manualInput;whiteSpace=wrap;rounded=1;size=26;arcSize=11;" vertex="1" parent="1">
          <mxGeometry x="80" y="150" width="100" height="60" as="geometry" />
        </mxCell>
        <mxCell id="HfCSILA5ziux-G7GHAKS-4" value="" style="endArrow=classic;html=1;rounded=0;exitX=1.03;exitY=0.633;exitDx=0;exitDy=0;exitPerimeter=0;" edge="1" parent="1" source="HfCSILA5ziux-G7GHAKS-3" target="HfCSILA5ziux-G7GHAKS-5">
          <mxGeometry width="50" height="50" relative="1" as="geometry">
            <mxPoint x="310" y="300" as="sourcePoint" />
            <mxPoint x="220" y="190" as="targetPoint" />
          </mxGeometry>
        </mxCell>
        <mxCell id="HfCSILA5ziux-G7GHAKS-5" value="saldo inicial &quot; +&lt;br&gt;saldo" style="strokeWidth=2;html=1;shape=mxgraph.flowchart.display;whiteSpace=wrap;" vertex="1" parent="1">
          <mxGeometry x="230" y="160" width="100" height="60" as="geometry" />
        </mxCell>
        <mxCell id="HfCSILA5ziux-G7GHAKS-6" value="" style="endArrow=classic;html=1;rounded=0;exitX=0.5;exitY=1;exitDx=0;exitDy=0;exitPerimeter=0;" edge="1" parent="1" source="HfCSILA5ziux-G7GHAKS-5">
          <mxGeometry width="50" height="50" relative="1" as="geometry">
            <mxPoint x="310" y="300" as="sourcePoint" />
            <mxPoint x="180" y="300" as="targetPoint" />
            <Array as="points">
              <mxPoint x="280" y="300" />
              <mxPoint x="250" y="300" />
              <mxPoint x="210" y="300" />
            </Array>
          </mxGeometry>
        </mxCell>
        <mxCell id="HfCSILA5ziux-G7GHAKS-7" value="encerrar = &quot;n&quot;" style="rounded=1;whiteSpace=wrap;html=1;absoluteArcSize=1;arcSize=14;strokeWidth=2;" vertex="1" parent="1">
          <mxGeometry x="70" y="270" width="110" height="60" as="geometry" />
        </mxCell>
        <mxCell id="HfCSILA5ziux-G7GHAKS-8" value="" style="endArrow=classic;html=1;rounded=0;exitX=0.5;exitY=1;exitDx=0;exitDy=0;" edge="1" parent="1" source="HfCSILA5ziux-G7GHAKS-7" target="HfCSILA5ziux-G7GHAKS-9">
          <mxGeometry width="50" height="50" relative="1" as="geometry">
            <mxPoint x="310" y="300" as="sourcePoint" />
            <mxPoint x="125" y="370" as="targetPoint" />
          </mxGeometry>
        </mxCell>
        <mxCell id="HfCSILA5ziux-G7GHAKS-9" value="encerrar = &quot;n&quot;" style="strokeWidth=2;html=1;shape=mxgraph.flowchart.decision;whiteSpace=wrap;" vertex="1" parent="1">
          <mxGeometry x="75" y="375" width="100" height="100" as="geometry" />
        </mxCell>
        <mxCell id="HfCSILA5ziux-G7GHAKS-10" value="" style="endArrow=classic;html=1;rounded=0;exitX=0.5;exitY=1;exitDx=0;exitDy=0;exitPerimeter=0;" edge="1" parent="1" source="HfCSILA5ziux-G7GHAKS-9" target="HfCSILA5ziux-G7GHAKS-11">
          <mxGeometry width="50" height="50" relative="1" as="geometry">
            <mxPoint x="310" y="360" as="sourcePoint" />
            <mxPoint x="125" y="530" as="targetPoint" />
          </mxGeometry>
        </mxCell>
        <mxCell id="HfCSILA5ziux-G7GHAKS-11" value="tipo de entrada" style="html=1;strokeWidth=2;shape=manualInput;whiteSpace=wrap;rounded=1;size=26;arcSize=11;" vertex="1" parent="1">
          <mxGeometry x="75" y="520" width="100" height="60" as="geometry" />
        </mxCell>
        <mxCell id="HfCSILA5ziux-G7GHAKS-12" value="" style="endArrow=classic;html=1;rounded=0;exitX=0.5;exitY=1;exitDx=0;exitDy=0;" edge="1" parent="1" source="HfCSILA5ziux-G7GHAKS-11" target="HfCSILA5ziux-G7GHAKS-13">
          <mxGeometry width="50" height="50" relative="1" as="geometry">
            <mxPoint x="310" y="660" as="sourcePoint" />
            <mxPoint x="125" y="630" as="targetPoint" />
          </mxGeometry>
        </mxCell>
        <mxCell id="HfCSILA5ziux-G7GHAKS-13" value="quanlidade" style="html=1;strokeWidth=2;shape=manualInput;whiteSpace=wrap;rounded=1;size=26;arcSize=11;" vertex="1" parent="1">
          <mxGeometry x="75" y="620" width="100" height="60" as="geometry" />
        </mxCell>
        <mxCell id="HfCSILA5ziux-G7GHAKS-14" value="" style="endArrow=classic;html=1;rounded=0;exitX=0.5;exitY=1;exitDx=0;exitDy=0;" edge="1" parent="1" source="HfCSILA5ziux-G7GHAKS-13" target="HfCSILA5ziux-G7GHAKS-15">
          <mxGeometry width="50" height="50" relative="1" as="geometry">
            <mxPoint x="310" y="660" as="sourcePoint" />
            <mxPoint x="125" y="740" as="targetPoint" />
          </mxGeometry>
        </mxCell>
        <mxCell id="HfCSILA5ziux-G7GHAKS-15" value="tipo de &lt;br&gt;entrada =1" style="strokeWidth=2;html=1;shape=mxgraph.flowchart.decision;whiteSpace=wrap;" vertex="1" parent="1">
          <mxGeometry x="80" y="730" width="95" height="110" as="geometry" />
        </mxCell>
        <mxCell id="HfCSILA5ziux-G7GHAKS-16" value="" style="endArrow=classic;html=1;rounded=0;exitX=0.5;exitY=1;exitDx=0;exitDy=0;exitPerimeter=0;" edge="1" parent="1" source="HfCSILA5ziux-G7GHAKS-15" target="HfCSILA5ziux-G7GHAKS-17">
          <mxGeometry width="50" height="50" relative="1" as="geometry">
            <mxPoint x="310" y="660" as="sourcePoint" />
            <mxPoint x="125" y="870" as="targetPoint" />
          </mxGeometry>
        </mxCell>
        <mxCell id="HfCSILA5ziux-G7GHAKS-17" value="tipo de&amp;nbsp;&lt;br&gt;entrada = 2" style="strokeWidth=2;html=1;shape=mxgraph.flowchart.decision;whiteSpace=wrap;" vertex="1" parent="1">
          <mxGeometry x="75" y="860" width="100" height="100" as="geometry" />
        </mxCell>
        <mxCell id="HfCSILA5ziux-G7GHAKS-18" value="" style="endArrow=classic;html=1;rounded=0;exitX=0.5;exitY=1;exitDx=0;exitDy=0;exitPerimeter=0;" edge="1" parent="1" source="HfCSILA5ziux-G7GHAKS-17" target="HfCSILA5ziux-G7GHAKS-19">
          <mxGeometry width="50" height="50" relative="1" as="geometry">
            <mxPoint x="310" y="990" as="sourcePoint" />
            <mxPoint x="125" y="1150" as="targetPoint" />
          </mxGeometry>
        </mxCell>
        <mxCell id="HfCSILA5ziux-G7GHAKS-19" value="saldo" style="strokeWidth=2;html=1;shape=mxgraph.flowchart.display;whiteSpace=wrap;" vertex="1" parent="1">
          <mxGeometry x="75" y="1130" width="100" height="60" as="geometry" />
        </mxCell>
        <mxCell id="HfCSILA5ziux-G7GHAKS-20" value="" style="endArrow=classic;html=1;rounded=0;exitX=0.5;exitY=1;exitDx=0;exitDy=0;exitPerimeter=0;" edge="1" parent="1" source="HfCSILA5ziux-G7GHAKS-19" target="HfCSILA5ziux-G7GHAKS-21">
          <mxGeometry width="50" height="50" relative="1" as="geometry">
            <mxPoint x="310" y="1290" as="sourcePoint" />
            <mxPoint x="125" y="1220" as="targetPoint" />
          </mxGeometry>
        </mxCell>
        <mxCell id="HfCSILA5ziux-G7GHAKS-21" value="encerar? (s/n)" style="html=1;strokeWidth=2;shape=manualInput;whiteSpace=wrap;rounded=1;size=26;arcSize=11;" vertex="1" parent="1">
          <mxGeometry x="75" y="1215" width="100" height="60" as="geometry" />
        </mxCell>
        <mxCell id="HfCSILA5ziux-G7GHAKS-22" value="" style="endArrow=classic;html=1;rounded=0;exitX=1;exitY=0.5;exitDx=0;exitDy=0;exitPerimeter=0;" edge="1" parent="1" source="HfCSILA5ziux-G7GHAKS-15" target="HfCSILA5ziux-G7GHAKS-23">
          <mxGeometry width="50" height="50" relative="1" as="geometry">
            <mxPoint x="310" y="690" as="sourcePoint" />
            <mxPoint x="220" y="780" as="targetPoint" />
          </mxGeometry>
        </mxCell>
        <mxCell id="HfCSILA5ziux-G7GHAKS-23" value="saldo=saldo&lt;br&gt;+quantidade" style="rounded=1;whiteSpace=wrap;html=1;absoluteArcSize=1;arcSize=14;strokeWidth=2;" vertex="1" parent="1">
          <mxGeometry x="240" y="755" width="100" height="50" as="geometry" />
        </mxCell>
        <mxCell id="HfCSILA5ziux-G7GHAKS-24" value="" style="endArrow=classic;html=1;rounded=0;exitX=1;exitY=0.5;exitDx=0;exitDy=0;" edge="1" parent="1" source="HfCSILA5ziux-G7GHAKS-23" target="HfCSILA5ziux-G7GHAKS-25">
          <mxGeometry width="50" height="50" relative="1" as="geometry">
            <mxPoint x="310" y="690" as="sourcePoint" />
            <mxPoint x="390" y="780" as="targetPoint" />
          </mxGeometry>
        </mxCell>
        <mxCell id="HfCSILA5ziux-G7GHAKS-25" value="&quot;entrada &quot; +&amp;nbsp;&lt;br&gt;quantidade" style="strokeWidth=2;html=1;shape=mxgraph.flowchart.display;whiteSpace=wrap;" vertex="1" parent="1">
          <mxGeometry x="390" y="750" width="100" height="60" as="geometry" />
        </mxCell>
        <mxCell id="HfCSILA5ziux-G7GHAKS-26" value="" style="endArrow=classic;html=1;rounded=0;exitX=1;exitY=0.5;exitDx=0;exitDy=0;exitPerimeter=0;" edge="1" parent="1" source="HfCSILA5ziux-G7GHAKS-25">
          <mxGeometry width="50" height="50" relative="1" as="geometry">
            <mxPoint x="310" y="890" as="sourcePoint" />
            <mxPoint x="140" y="840" as="targetPoint" />
            <Array as="points">
              <mxPoint x="540" y="780" />
              <mxPoint x="540" y="840" />
            </Array>
          </mxGeometry>
        </mxCell>
        <mxCell id="HfCSILA5ziux-G7GHAKS-27" value="" style="endArrow=classic;html=1;rounded=0;exitX=1;exitY=0.5;exitDx=0;exitDy=0;exitPerimeter=0;" edge="1" parent="1" source="HfCSILA5ziux-G7GHAKS-17" target="HfCSILA5ziux-G7GHAKS-28">
          <mxGeometry width="50" height="50" relative="1" as="geometry">
            <mxPoint x="310" y="890" as="sourcePoint" />
            <mxPoint x="240" y="910" as="targetPoint" />
          </mxGeometry>
        </mxCell>
        <mxCell id="HfCSILA5ziux-G7GHAKS-28" value="saldo &amp;gt;=&lt;br&gt;quantidade" style="strokeWidth=2;html=1;shape=mxgraph.flowchart.decision;whiteSpace=wrap;" vertex="1" parent="1">
          <mxGeometry x="230" y="860" width="100" height="100" as="geometry" />
        </mxCell>
        <mxCell id="HfCSILA5ziux-G7GHAKS-29" value="" style="endArrow=classic;html=1;rounded=0;exitX=1;exitY=0.5;exitDx=0;exitDy=0;exitPerimeter=0;" edge="1" parent="1" source="HfCSILA5ziux-G7GHAKS-28" target="HfCSILA5ziux-G7GHAKS-30">
          <mxGeometry width="50" height="50" relative="1" as="geometry">
            <mxPoint x="310" y="890" as="sourcePoint" />
            <mxPoint x="380" y="910" as="targetPoint" />
          </mxGeometry>
        </mxCell>
        <mxCell id="HfCSILA5ziux-G7GHAKS-30" value="saldo = &lt;br&gt;saldo -&amp;nbsp; quantidade" style="rounded=1;whiteSpace=wrap;html=1;absoluteArcSize=1;arcSize=14;strokeWidth=2;" vertex="1" parent="1">
          <mxGeometry x="390" y="880" width="120" height="60" as="geometry" />
        </mxCell>
        <mxCell id="HfCSILA5ziux-G7GHAKS-31" value="" style="endArrow=classic;html=1;rounded=0;exitX=0.583;exitY=1.1;exitDx=0;exitDy=0;exitPerimeter=0;" edge="1" parent="1" source="HfCSILA5ziux-G7GHAKS-30" target="HfCSILA5ziux-G7GHAKS-32">
          <mxGeometry width="50" height="50" relative="1" as="geometry">
            <mxPoint x="310" y="890" as="sourcePoint" />
            <mxPoint x="460" y="1000" as="targetPoint" />
          </mxGeometry>
        </mxCell>
        <mxCell id="HfCSILA5ziux-G7GHAKS-32" value="&quot;saida&quot; + quantidade" style="strokeWidth=2;html=1;shape=mxgraph.flowchart.display;whiteSpace=wrap;" vertex="1" parent="1">
          <mxGeometry x="410" y="990" width="100" height="60" as="geometry" />
        </mxCell>
        <mxCell id="HfCSILA5ziux-G7GHAKS-34" value="" style="endArrow=classic;html=1;rounded=0;exitX=0.5;exitY=1;exitDx=0;exitDy=0;exitPerimeter=0;" edge="1" parent="1" source="HfCSILA5ziux-G7GHAKS-28" target="HfCSILA5ziux-G7GHAKS-35">
          <mxGeometry width="50" height="50" relative="1" as="geometry">
            <mxPoint x="310" y="890" as="sourcePoint" />
            <mxPoint x="280" y="1000" as="targetPoint" />
          </mxGeometry>
        </mxCell>
        <mxCell id="HfCSILA5ziux-G7GHAKS-35" value="&quot;saldo &lt;br&gt;insuficiente &quot;" style="strokeWidth=2;html=1;shape=mxgraph.flowchart.display;whiteSpace=wrap;" vertex="1" parent="1">
          <mxGeometry x="230" y="990" width="100" height="60" as="geometry" />
        </mxCell>
        <mxCell id="HfCSILA5ziux-G7GHAKS-36" value="" style="endArrow=classic;html=1;rounded=0;exitX=0.5;exitY=1;exitDx=0;exitDy=0;exitPerimeter=0;" edge="1" parent="1" source="HfCSILA5ziux-G7GHAKS-35">
          <mxGeometry width="50" height="50" relative="1" as="geometry">
            <mxPoint x="310" y="890" as="sourcePoint" />
            <mxPoint x="140" y="1080" as="targetPoint" />
            <Array as="points">
              <mxPoint x="280" y="1080" />
            </Array>
          </mxGeometry>
        </mxCell>
        <mxCell id="HfCSILA5ziux-G7GHAKS-37" value="" style="endArrow=classic;html=1;rounded=0;exitX=0.57;exitY=0.983;exitDx=0;exitDy=0;exitPerimeter=0;" edge="1" parent="1" source="HfCSILA5ziux-G7GHAKS-32">
          <mxGeometry width="50" height="50" relative="1" as="geometry">
            <mxPoint x="310" y="890" as="sourcePoint" />
            <mxPoint x="140" y="1100" as="targetPoint" />
            <Array as="points">
              <mxPoint x="467" y="1100" />
            </Array>
          </mxGeometry>
        </mxCell>
        <mxCell id="HfCSILA5ziux-G7GHAKS-38" value="sistema&lt;br&gt;encerado" style="strokeWidth=2;html=1;shape=mxgraph.flowchart.display;whiteSpace=wrap;" vertex="1" parent="1">
          <mxGeometry x="80" y="1330" width="100" height="60" as="geometry" />
        </mxCell>
        <mxCell id="HfCSILA5ziux-G7GHAKS-39" value="" style="endArrow=classic;html=1;rounded=0;exitX=0.5;exitY=1;exitDx=0;exitDy=0;exitPerimeter=0;" edge="1" parent="1" source="HfCSILA5ziux-G7GHAKS-38" target="HfCSILA5ziux-G7GHAKS-40">
          <mxGeometry width="50" height="50" relative="1" as="geometry">
            <mxPoint x="310" y="1190" as="sourcePoint" />
            <mxPoint x="130" y="1440" as="targetPoint" />
          </mxGeometry>
        </mxCell>
        <mxCell id="HfCSILA5ziux-G7GHAKS-40" value="fim" style="strokeWidth=2;html=1;shape=mxgraph.flowchart.start_1;whiteSpace=wrap;" vertex="1" parent="1">
          <mxGeometry x="80" y="1440" width="100" height="40" as="geometry" />
        </mxCell>
        <mxCell id="HfCSILA5ziux-G7GHAKS-41" value="" style="endArrow=classic;html=1;rounded=0;exitX=0;exitY=0.75;exitDx=0;exitDy=0;entryX=0;entryY=0.5;entryDx=0;entryDy=0;entryPerimeter=0;" edge="1" parent="1" source="HfCSILA5ziux-G7GHAKS-21" target="HfCSILA5ziux-G7GHAKS-9">
          <mxGeometry width="50" height="50" relative="1" as="geometry">
            <mxPoint x="310" y="1090" as="sourcePoint" />
            <mxPoint x="360" y="1040" as="targetPoint" />
            <Array as="points">
              <mxPoint x="20" y="1260" />
              <mxPoint x="30" y="425" />
            </Array>
          </mxGeometry>
        </mxCell>
        <mxCell id="HfCSILA5ziux-G7GHAKS-42" value="" style="endArrow=classic;html=1;rounded=0;exitX=1;exitY=0.5;exitDx=0;exitDy=0;exitPerimeter=0;entryX=1;entryY=0.5;entryDx=0;entryDy=0;entryPerimeter=0;" edge="1" parent="1" source="HfCSILA5ziux-G7GHAKS-9" target="HfCSILA5ziux-G7GHAKS-38">
          <mxGeometry width="50" height="50" relative="1" as="geometry">
            <mxPoint x="310" y="370" as="sourcePoint" />
            <mxPoint x="360" y="320" as="targetPoint" />
            <Array as="points">
              <mxPoint x="560" y="430" />
              <mxPoint x="560" y="1360" />
            </Array>
          </mxGeometry>
        </mxCell>
        <mxCell id="HfCSILA5ziux-G7GHAKS-47" value="&lt;b style=&quot;&quot;&gt;&lt;font style=&quot;font-size: 27px;&quot;&gt;V&lt;/font&gt;&lt;/b&gt;" style="text;html=1;align=center;verticalAlign=middle;resizable=0;points=[];autosize=1;strokeColor=none;fillColor=none;strokeWidth=7;fontSize=17;" vertex="1" parent="1">
          <mxGeometry x="180" y="860" width="40" height="50" as="geometry" />
        </mxCell>
        <mxCell id="HfCSILA5ziux-G7GHAKS-48" value="&lt;b style=&quot;&quot;&gt;&lt;font style=&quot;font-size: 27px;&quot;&gt;V&lt;/font&gt;&lt;/b&gt;" style="text;html=1;align=center;verticalAlign=middle;resizable=0;points=[];autosize=1;strokeColor=none;fillColor=none;strokeWidth=7;fontSize=17;" vertex="1" parent="1">
          <mxGeometry x="60" y="490" width="40" height="50" as="geometry" />
        </mxCell>
        <mxCell id="HfCSILA5ziux-G7GHAKS-49" value="&lt;b style=&quot;&quot;&gt;&lt;font style=&quot;font-size: 27px;&quot;&gt;V&lt;/font&gt;&lt;/b&gt;" style="text;html=1;align=center;verticalAlign=middle;resizable=0;points=[];autosize=1;strokeColor=none;fillColor=none;strokeWidth=7;fontSize=17;" vertex="1" parent="1">
          <mxGeometry x="175" y="720" width="40" height="50" as="geometry" />
        </mxCell>
        <mxCell id="HfCSILA5ziux-G7GHAKS-50" value="&lt;b style=&quot;&quot;&gt;&lt;font style=&quot;font-size: 27px;&quot;&gt;V&lt;/font&gt;&lt;/b&gt;" style="text;html=1;align=center;verticalAlign=middle;resizable=0;points=[];autosize=1;strokeColor=none;fillColor=none;strokeWidth=7;fontSize=17;" vertex="1" parent="1">
          <mxGeometry x="330" y="850" width="40" height="50" as="geometry" />
        </mxCell>
        <mxCell id="HfCSILA5ziux-G7GHAKS-51" value="&lt;b style=&quot;font-size: 25px;&quot;&gt;F&lt;/b&gt;" style="text;html=1;align=center;verticalAlign=middle;resizable=0;points=[];autosize=1;strokeColor=none;fillColor=none;" vertex="1" parent="1">
          <mxGeometry x="70" y="820" width="40" height="40" as="geometry" />
        </mxCell>
        <mxCell id="HfCSILA5ziux-G7GHAKS-52" value="&lt;b style=&quot;font-size: 25px;&quot;&gt;F&lt;/b&gt;" style="text;html=1;align=center;verticalAlign=middle;resizable=0;points=[];autosize=1;strokeColor=none;fillColor=none;" vertex="1" parent="1">
          <mxGeometry x="200" y="960" width="40" height="40" as="geometry" />
        </mxCell>
        <mxCell id="HfCSILA5ziux-G7GHAKS-53" value="&lt;b style=&quot;font-size: 25px;&quot;&gt;F&lt;/b&gt;" style="text;html=1;align=center;verticalAlign=middle;resizable=0;points=[];autosize=1;strokeColor=none;fillColor=none;" vertex="1" parent="1">
          <mxGeometry x="60" y="960" width="40" height="40" as="geometry" />
        </mxCell>
        <mxCell id="HfCSILA5ziux-G7GHAKS-54" value="&lt;b style=&quot;font-size: 25px;&quot;&gt;F&lt;/b&gt;" style="text;html=1;align=center;verticalAlign=middle;resizable=0;points=[];autosize=1;strokeColor=none;fillColor=none;" vertex="1" parent="1">
          <mxGeometry x="290" y="380" width="40" height="40" as="geometry" />
        </mxCell>
      </root>
    </mxGraphModel>
  </diagram>
</mxfile>
